<?xml version="1.0" standalone="no"?>
<!DOCTYPE svg PUBLIC "-//W3C//DTD SVG 1.1//EN" "http://www.w3.org/Graphics/SVG/1.1/DTD/svg11.dtd">
<svg width="244" height="244" version="1.1" xmlns="http://www.w3.org/2000/svg">
  <title>15 cells diameter theta maze</title>
  <desc>15 cells diameter theta maze generated by The Maze Generator Website (https://www.mazegenerator.net/).</desc>
  <g fill="none" stroke="#000000" stroke-width="2" stroke-linecap="square">
    <path d="M 107.69266270539642,159.95518130045147 A 40,40 0 1,1 123,163" />
    <path d="M 67,123.00000000000001 A 56,56 0 0,1 162.59797974644667,83.402020253553331" />
    <path d="M 174.73725382063208,144.43027221244503 A 56,56 0 0,1 144.43027221244503,174.73725382063205" />
    <path d="M 123,179 A 56,56 0 0,1 71.262746179367952,144.43027221244506" />
    <path d="M 63.134187914216724,82.998943222588665 A 72,72 0 0,1 189.51932634081265,95.446792869713533" />
    <path d="M 193.61654018903261,108.95349681483876 A 72,72 0 0,1 195,123" />
    <path d="M 182.86581208578326,163.00105677741135 A 72,72 0 0,1 82.998943222588665,182.86581208578326" />
    <path d="M 72.0883117545686,173.91168824543144 A 72,72 0 0,1 51,123.00000000000001" />
    <path d="M 52.383459810967409,108.95349681483876 A 72,72 0 0,1 56.48067365918736,95.446792869713519" />
    <path d="M 105.83205166258067,36.690895324515722 A 88,88 0 0,1 123,35" />
    <path d="M 156.6761420481279,41.698601139006769 A 88,88 0 0,1 171.890180505725,49.83067411737602" />
    <path d="M 196.16932588262398,74.109819494275 A 88,88 0 0,1 204.30139886099323,89.3238579518721" />
    <path d="M 211,123 A 88,88 0 0,1 209.30910467548426,140.16794833741929" />
    <path d="M 196.16932588262398,171.89018050572497 A 88,88 0 0,1 171.89018050572497,196.16932588262398" />
    <path d="M 156.6761420481279,204.30139886099323 A 88,88 0 0,1 123.00000000000001,211" />
    <path d="M 105.83205166258071,209.30910467548426 A 88,88 0 0,1 89.323857951872114,204.30139886099323" />
    <path d="M 74.10981949427503,196.16932588262398 A 88,88 0 0,1 41.698601139006783,156.67614204812796" />
    <path d="M 41.698601139006769,89.323857951872071 A 88,88 0 0,1 60.774603255583806,60.774603255583834" />
    <path d="M 74.109819494275,49.83067411737602 A 88,88 0 0,1 89.323857951872043,41.698601139006783" />
    <path d="M 123,19 A 104,104 0 0,1 143.28939348967734,20.998330838064035" />
    <path d="M 180.77930423403862,36.527160320535287 A 104,104 0 0,1 196.53910524340094,49.46089475659906" />
    <path d="M 219.08347138117381,83.200923034030666 A 104,104 0 0,1 209.47283967946473,180.77930423403859" />
    <path d="M 180.77930423403862,209.4728396794647 A 104,104 0 0,1 143.28939348967737,225.00166916193598" />
    <path d="M 123.00000000000001,227 A 104,104 0 0,1 83.20092303403068,219.08347138117381" />
    <path d="M 65.220695765961409,209.47283967946473 A 104,104 0 0,1 36.527160320535287,180.77930423403862" />
    <path d="M 26.916528618826206,162.79907696596939 A 104,104 0 0,1 20.998330838064035,143.28939348967737" />
    <path d="M 26.916528618826192,83.200923034030637 A 104,104 0 0,1 36.527160320535273,65.220695765961409" />
    <path d="M 65.220695765961366,36.5271603205353 A 104,104 0 0,1 102.71060651032261,20.998330838064049" />
    <path d="M 146.41083864193539,5.3057663516123483 A 120,120 0 1,1 123,3" />
  </g>
  <g fill="none" stroke="#000000" stroke-width="2" stroke-linecap="butt">
    <line x1="123" y1="3" x2="123" y2="35" />
    <line x1="143.28939348967734" y1="20.998330838064035" x2="140.16794833741929" y2="36.690895324515722" />
    <line x1="162.79907696596933" y1="26.916528618826177" x2="150.55320713028647" y2="56.48067365918736" />
    <line x1="207.85281374238571" y1="38.147186257614294" x2="173.91168824543144" y2="72.088311754568565" />
    <line x1="209.4728396794647" y1="65.220695765961352" x2="196.16932588262398" y2="74.109819494275" />
    <line x1="204.30139886099323" y1="89.3238579518721" x2="189.51932634081265" y2="95.446792869713533" />
    <line x1="174.73725382063205" y1="101.56972778755497" x2="159.95518130045147" y2="107.6926627053964" />
    <line x1="225.00166916193598" y1="102.71060651032265" x2="209.30910467548426" y2="105.83205166258071" />
    <line x1="227" y1="123" x2="211" y2="123" />
    <line x1="195" y1="123" x2="163" y2="123" />
    <line x1="209.30910467548426" y1="140.16794833741929" x2="193.61654018903261" y2="137.04650318516124" />
    <line x1="219.08347138117381" y1="162.79907696596933" x2="204.30139886099323" y2="156.6761420481279" />
    <line x1="189.51932634081265" y1="150.55320713028647" x2="174.73725382063205" y2="144.43027221244503" />
    <line x1="222.77635347630547" y1="189.66842796235224" x2="209.47283967946473" y2="180.77930423403859" />
    <line x1="196.53910524340097" y1="196.53910524340094" x2="173.91168824543144" y2="173.91168824543144" />
    <line x1="189.66842796235227" y1="222.77635347630545" x2="180.77930423403862" y2="209.4728396794647" />
    <line x1="156.6761420481279" y1="204.30139886099323" x2="144.43027221244503" y2="174.73725382063205" />
    <line x1="143.28939348967737" y1="225.00166916193598" x2="140.16794833741932" y2="209.30910467548426" />
    <line x1="123.00000000000001" y1="227" x2="123.00000000000001" y2="211" />
    <line x1="123" y1="179" x2="123" y2="163" />
    <line x1="89.3238579518721" y1="204.30139886099323" x2="95.446792869713548" y2="189.51932634081265" />
    <line x1="65.2206957659614" y1="209.47283967946473" x2="74.10981949427503" y2="196.16932588262398" />
    <line x1="49.83067411737602" y1="171.890180505725" x2="63.134187914216746" y2="163.00105677741135" />
    <line x1="12.134456098645615" y1="168.92201188381085" x2="41.698601139006783" y2="156.67614204812796" />
    <line x1="56.480673659187374" y1="150.5532071302865" x2="71.262746179367952" y2="144.43027221244506" />
    <line x1="36.690895324515736" y1="140.16794833741932" x2="52.383459810967423" y2="137.04650318516127" />
    <line x1="19" y1="123.00000000000001" x2="51" y2="123.00000000000001" />
    <line x1="67" y1="123.00000000000001" x2="83" y2="123.00000000000001" />
    <line x1="20.998330838064035" y1="102.71060651032266" x2="52.383459810967409" y2="108.95349681483876" />
    <line x1="56.48067365918736" y1="95.446792869713519" x2="71.262746179367952" y2="101.56972778755497" />
    <line x1="23.223646523694541" y1="56.331572037647774" x2="49.830674117376006" y2="74.10981949427503" />
    <line x1="38.14718625761428" y1="38.147186257614322" x2="49.460894756599046" y2="49.460894756599075" />
    <line x1="56.331572037647732" y1="23.223646523694569" x2="74.109819494275" y2="49.83067411737602" />
  </g>
  <path fill="none" stroke="#ff0000" stroke-width="2" stroke-linecap="square" stroke-linejoin="round" d="M 134.76205683954728,3.5778327993363774 L 133.97791971691078,11.539310612713948 A 112,112 0 0,1 155.51188385249978,15.822682397992608 L 146.222774180357,46.4447731414233 A 80,80 0 0,0 46.444773141423283,99.777225819643036 L 15.822682397992594,90.48811614750025 A 112,112 0 0,0 11.539310612713948,112.02208028308927 L 59.3081774929794,116.72690301890816 A 64,64 0 0,0 60.22974205419326,135.48578060903225 L 75.922306540644939,132.36433545677417 A 48,48 0 0,0 113.63566454322584,170.07769345935506 L 115.19638711935487,162.23141121612923" />
</svg>
