<?xml version="1.0" standalone="no"?>
<!DOCTYPE svg PUBLIC "-//W3C//DTD SVG 1.1//EN" "http://www.w3.org/Graphics/SVG/1.1/DTD/svg11.dtd">
<svg width="410" height="476.84987046630351" version="1.1" xmlns="http://www.w3.org/2000/svg">
  <title>Hexagonal sigma maze with 10 cells side</title>
  <desc>Hexagonal sigma maze with 10 cells side generated by The Maze Generator Website (https://www.mazegenerator.net/).</desc>
  <g fill="none" stroke="#000000" stroke-width="2" stroke-linecap="round" stroke-linejoin="round">
    <polyline points="170,26.248711305964292 177,14.124355652982152 191,14.124355652982152 198,26.248711305964292" />
    <line x1="191" y1="14.124355652982152" x2="198" y2="2.0000000000000107" />
    <polyline points="212,2.0000000000000107 219,14.124355652982152 233,14.124355652982152 240,26.248711305964292" />
    <polyline points="128,50.49742261192857 135,38.373066958946431 149,38.373066958946431 156,26.248711305964292 170,26.248711305964292" />
    <polyline points="170,50.49742261192857 177,38.373066958946431 191,38.373066958946431 198,50.49742261192857" />
    <polyline points="212,26.248711305964292 219,38.373066958946431 212,50.49742261192857" />
    <polyline points="219,38.373066958946431 233,38.373066958946431 240,50.49742261192857" />
    <polyline points="240,26.248711305964292 254,26.248711305964292 261,38.373066958946431 254,50.49742261192857" />
    <polyline points="261,38.373066958946431 275,38.373066958946431 282,50.49742261192857" />
    <polyline points="86,74.746133917892848 93,62.621778264910709 107,62.621778264910709 114,50.49742261192857 128,50.49742261192857" />
    <polyline points="128,74.746133917892848 135,62.621778264910709 149,62.621778264910709 156,50.49742261192857 170,50.49742261192857 177,62.621778264910709 170,74.746133917892848" />
    <line x1="177" y1="62.621778264910709" x2="191" y2="62.621778264910709" />
    <polyline points="198,50.49742261192857 212,50.49742261192857 219,62.621778264910709 212,74.746133917892848" />
    <polyline points="240,74.746133917892848 233,62.621778264910709 240,50.49742261192857" />
    <polyline points="254,74.746133917892848 261,62.621778264910709 275,62.621778264910709" />
    <polyline points="282,50.49742261192857 296,50.49742261192857 303,62.621778264910709 296,74.746133917892848" />
    <polyline points="303,62.621778264910709 317,62.621778264910709 324,74.746133917892848" />
    <polyline points="44,98.994845223857141 51,86.870489570875 65,86.870489570875 72,98.994845223857141" />
    <polyline points="65,86.870489570875 72,74.746133917892848 86,74.746133917892848" />
    <line x1="86" y1="98.994845223857141" x2="93" y2="86.870489570875" />
    <polyline points="107,86.870489570875 114,74.746133917892848 128,74.746133917892848 135,86.870489570875 128,98.994845223857141" />
    <polyline points="156,98.994845223857141 149,86.870489570875 156,74.746133917892848" />
    <polyline points="170,74.746133917892848 177,86.870489570875 170,98.994845223857141" />
    <polyline points="198,98.994845223857141 191,86.870489570875 198,74.746133917892848 212,74.746133917892848" />
    <polyline points="212,98.994845223857141 219,86.870489570875 233,86.870489570875 240,74.746133917892848 254,74.746133917892848 261,86.870489570875" />
    <polyline points="282,98.994845223857141 275,86.870489570875 282,74.746133917892848" />
    <line x1="296" y1="98.994845223857141" x2="303" y2="86.870489570875" />
    <polyline points="324,98.994845223857141 317,86.870489570875 324,74.746133917892848 338,74.746133917892848 345,86.870489570875 359,86.870489570875 366,98.994845223857141" />
    <polyline points="9,135.36791218280357 2,123.24355652982142 9,111.11920087683927 23,111.11920087683927 30,123.24355652982142" />
    <polyline points="23,111.11920087683927 30,98.994845223857126 44,98.994845223857126" />
    <line x1="44" y1="123.24355652982142" x2="51" y2="111.11920087683927" />
    <polyline points="65,111.11920087683927 72,98.994845223857126 86,98.994845223857126 93,111.11920087683927 107,111.11920087683927 114,123.24355652982142" />
    <line x1="107" y1="111.11920087683927" x2="114" y2="98.994845223857126" />
    <polyline points="135,111.11920087683927 149,111.11920087683927 156,98.994845223857126 170,98.994845223857126" />
    <polyline points="170,123.24355652982142 177,111.11920087683927 191,111.11920087683927 198,98.994845223857126" />
    <polyline points="212,98.994845223857126 219,111.11920087683927 212,123.24355652982142" />
    <polyline points="219,111.11920087683927 233,111.11920087683927 240,123.24355652982142" />
    <polyline points="233,111.11920087683927 240,98.994845223857126 254,98.994845223857126 261,111.11920087683927 254,123.24355652982142" />
    <polyline points="261,111.11920087683927 275,111.11920087683927 282,123.24355652982142" />
    <polyline points="275,111.11920087683927 282,98.994845223857126 296,98.994845223857126 303,111.11920087683927 317,111.11920087683927 324,123.24355652982142" />
    <line x1="317" y1="111.11920087683927" x2="324" y2="98.994845223857126" />
    <polyline points="338,98.994845223857126 345,111.11920087683927 338,123.24355652982142" />
    <line x1="359" y1="111.11920087683927" x2="366" y2="123.24355652982142" />
    <polyline points="366,98.994845223857126 380,98.994845223857126 387,111.11920087683927 401,111.11920087683927 408,123.24355652982142 401,135.36791218280357" />
    <polyline points="9,159.61662348876783 2,147.4922678357857 9,135.36791218280357 23,135.36791218280357 30,147.4922678357857" />
    <polyline points="30,123.24355652982142 44,123.24355652982142 51,135.36791218280357 44,147.4922678357857" />
    <polyline points="51,135.36791218280357 65,135.36791218280357 72,123.24355652982142 86,123.24355652982142 93,135.36791218280357 86,147.4922678357857" />
    <polyline points="107,135.36791218280357 114,123.24355652982142 128,123.24355652982142" />
    <polyline points="128,147.4922678357857 135,135.36791218280357 149,135.36791218280357 156,123.24355652982142 170,123.24355652982142" />
    <line x1="170" y1="147.4922678357857" x2="177" y2="135.36791218280357" />
    <polyline points="198,147.4922678357857 191,135.36791218280357 198,123.24355652982142 212,123.24355652982142" />
    <polyline points="219,135.36791218280357 233,135.36791218280357 240,147.4922678357857" />
    <line x1="233" y1="135.36791218280357" x2="240" y2="123.24355652982142" />
    <polyline points="261,135.36791218280357 275,135.36791218280357 282,147.4922678357857" />
    <polyline points="296,123.24355652982142 303,135.36791218280357 296,147.4922678357857" />
    <polyline points="303,135.36791218280357 317,135.36791218280357 324,147.4922678357857" />
    <line x1="324" y1="123.24355652982142" x2="338" y2="123.24355652982142" />
    <line x1="338" y1="147.4922678357857" x2="345" y2="135.36791218280357" />
    <polyline points="366,147.4922678357857 359,135.36791218280357 366,123.24355652982142 380,123.24355652982142 387,135.36791218280357 380,147.4922678357857" />
    <polyline points="401,135.36791218280357 408,147.4922678357857 401,159.61662348876783" />
    <polyline points="9,183.86533479473212 2,171.74097914175 9,159.61662348876786" />
    <line x1="23" y1="159.61662348876786" x2="30" y2="147.49226783578573" />
    <polyline points="44,147.49226783578573 51,159.61662348876786 44,171.74097914175" />
    <line x1="51" y1="159.61662348876786" x2="65" y2="159.61662348876786" />
    <polyline points="72,147.49226783578573 86,147.49226783578573 93,159.61662348876786 107,159.61662348876786" />
    <polyline points="114,147.49226783578573 128,147.49226783578573 135,159.61662348876786 128,171.74097914175" />
    <polyline points="156,171.74097914175 149,159.61662348876786 156,147.49226783578573 170,147.49226783578573" />
    <line x1="170" y1="171.74097914175" x2="177" y2="159.61662348876786" />
    <polyline points="191,159.61662348876786 198,147.49226783578573 212,147.49226783578573 219,159.61662348876786" />
    <polyline points="240,171.74097914175 233,159.61662348876786 240,147.49226783578573 254,147.49226783578573 261,159.61662348876786 275,159.61662348876786 282,171.74097914175" />
    <line x1="282" y1="147.49226783578573" x2="296" y2="147.49226783578573" />
    <polyline points="296,171.74097914175 303,159.61662348876786 317,159.61662348876786 324,147.49226783578573 338,147.49226783578573 345,159.61662348876786 359,159.61662348876786 366,171.74097914175" />
    <line x1="359" y1="159.61662348876786" x2="366" y2="147.49226783578573" />
    <line x1="380" y1="147.49226783578573" x2="387" y2="159.61662348876786" />
    <polyline points="401,159.61662348876786 408,171.74097914175 401,183.86533479473212" />
    <polyline points="9,208.11404610069639 2,195.98969044771425 9,183.86533479473212 23,183.86533479473212" />
    <polyline points="30,171.74097914175 44,171.74097914175 51,183.86533479473212 44,195.98969044771425" />
    <polyline points="51,183.86533479473212 65,183.86533479473212 72,171.74097914175" />
    <polyline points="86,171.74097914175 93,183.86533479473212 107,183.86533479473212 114,171.74097914175 128,171.74097914175 135,183.86533479473212 128,195.98969044771425" />
    <polyline points="135,183.86533479473212 149,183.86533479473212 156,171.74097914175" />
    <polyline points="170,171.74097914175 177,183.86533479473212 170,195.98969044771425" />
    <polyline points="177,183.86533479473212 191,183.86533479473212 198,171.74097914175 212,171.74097914175 219,183.86533479473212 233,183.86533479473212 240,195.98969044771425" />
    <polyline points="254,171.74097914175 261,183.86533479473212 254,195.98969044771425" />
    <polyline points="261,183.86533479473212 275,183.86533479473212 282,195.98969044771425" />
    <polyline points="282,171.74097914175 296,171.74097914175 303,183.86533479473212 317,183.86533479473212 324,171.74097914175 338,171.74097914175 345,183.86533479473212 338,195.98969044771425" />
    <line x1="345" y1="183.86533479473212" x2="359" y2="183.86533479473212" />
    <polyline points="366,171.74097914175 380,171.74097914175 387,183.86533479473212" />
    <polyline points="401,183.86533479473212 408,195.98969044771425 401,208.11404610069639" />
    <polyline points="9,232.36275740666068 2,220.23840175367855 9,208.11404610069641" />
    <polyline points="23,208.11404610069641 30,195.98969044771428 44,195.98969044771428" />
    <polyline points="44,220.23840175367855 51,208.11404610069641 65,208.11404610069641 72,220.23840175367855" />
    <line x1="65" y1="208.11404610069641" x2="72" y2="195.98969044771428" />
    <polyline points="86,195.98969044771428 93,208.11404610069641 107,208.11404610069641 114,220.23840175367855" />
    <line x1="107" y1="208.11404610069641" x2="114" y2="195.98969044771428" />
    <polyline points="128,220.23840175367855 135,208.11404610069641 149,208.11404610069641 156,220.23840175367855" />
    <polyline points="149,208.11404610069641 156,195.98969044771428 170,195.98969044771428" />
    <polyline points="240,195.98969044771428 254,195.98969044771428 261,208.11404610069641 254,220.23840175367855" />
    <polyline points="282,220.23840175367855 275,208.11404610069641 282,195.98969044771428 296,195.98969044771428" />
    <polyline points="303,208.11404610069641 317,208.11404610069641 324,195.98969044771428 338,195.98969044771428 345,208.11404610069641" />
    <polyline points="366,220.23840175367855 359,208.11404610069641 366,195.98969044771428" />
    <polyline points="380,195.98969044771428 387,208.11404610069641 401,208.11404610069641 408,220.23840175367855 401,232.36275740666068" />
    <polyline points="9,256.61146871262497 2,244.48711305964284 9,232.36275740666071 23,232.36275740666071 30,244.48711305964284" />
    <polyline points="23,232.36275740666071 30,220.23840175367857 44,220.23840175367857" />
    <polyline points="44,244.48711305964284 51,232.36275740666071 65,232.36275740666071" />
    <line x1="72" y1="220.23840175367857" x2="86" y2="220.23840175367857" />
    <polyline points="86,244.48711305964284 93,232.36275740666071 107,232.36275740666071 114,244.48711305964284" />
    <polyline points="107,232.36275740666071 114,220.23840175367857 128,220.23840175367857" />
    <polyline points="128,244.48711305964284 135,232.36275740666071 149,232.36275740666071 156,244.48711305964284" />
    <line x1="149" y1="232.36275740666071" x2="156" y2="220.23840175367857" />
    <polyline points="254,220.23840175367857 261,232.36275740666071 254,244.48711305964284" />
    <line x1="261" y1="232.36275740666071" x2="275" y2="232.36275740666071" />
    <polyline points="296,220.23840175367857 303,232.36275740666071 296,244.48711305964284" />
    <polyline points="303,232.36275740666071 317,232.36275740666071 324,244.48711305964284" />
    <line x1="317" y1="232.36275740666071" x2="324" y2="220.23840175367857" />
    <polyline points="338,220.23840175367857 345,232.36275740666071 338,244.48711305964284" />
    <polyline points="345,232.36275740666071 359,232.36275740666071 366,220.23840175367857 380,220.23840175367857 387,232.36275740666071 380,244.48711305964284" />
    <polyline points="401,232.36275740666071 408,244.48711305964284 401,256.61146871262497" />
    <polyline points="9,280.86018001858923 2,268.73582436560707 9,256.61146871262491" />
    <line x1="23" y1="256.61146871262491" x2="30" y2="268.73582436560707" />
    <polyline points="30,244.48711305964278 44,244.48711305964278 51,256.61146871262491" />
    <polyline points="72,268.73582436560707 65,256.61146871262491 72,244.48711305964278 86,244.48711305964278" />
    <polyline points="86,268.73582436560707 93,256.61146871262491 107,256.61146871262491" />
    <polyline points="128,268.73582436560707 135,256.61146871262491 149,256.61146871262491 156,268.73582436560707" />
    <line x1="149" y1="256.61146871262491" x2="156" y2="244.48711305964278" />
    <polyline points="254,244.48711305964278 261,256.61146871262491 254,268.73582436560707" />
    <polyline points="275,256.61146871262491 282,244.48711305964278 296,244.48711305964278 303,256.61146871262491 296,268.73582436560707" />
    <line x1="317" y1="256.61146871262491" x2="324" y2="268.73582436560707" />
    <line x1="324" y1="244.48711305964278" x2="338" y2="244.48711305964278" />
    <polyline points="338,268.73582436560707 345,256.61146871262491 359,256.61146871262491 366,268.73582436560707" />
    <polyline points="359,256.61146871262491 366,244.48711305964278 380,244.48711305964278" />
    <polyline points="380,268.73582436560707 387,256.61146871262491 401,256.61146871262491 408,268.73582436560707 401,280.86018001858923" />
    <polyline points="9,305.10889132455355 2,292.98453567157139 9,280.86018001858923" />
    <polyline points="30,292.98453567157139 23,280.86018001858923 30,268.73582436560707 44,268.73582436560707" />
    <polyline points="51,280.86018001858923 65,280.86018001858923 72,292.98453567157139" />
    <line x1="65" y1="280.86018001858923" x2="72" y2="268.73582436560707" />
    <polyline points="86,268.73582436560707 93,280.86018001858923 86,292.98453567157139" />
    <polyline points="93,280.86018001858923 107,280.86018001858923 114,268.73582436560707 128,268.73582436560707 135,280.86018001858923 128,292.98453567157139" />
    <line x1="135" y1="280.86018001858923" x2="149" y2="280.86018001858923" />
    <polyline points="156,268.73582436560707 170,268.73582436560707 177,280.86018001858923 170,292.98453567157139" />
    <polyline points="177,280.86018001858923 191,280.86018001858923 198,292.98453567157139" />
    <polyline points="212,292.98453567157139 219,280.86018001858923 233,280.86018001858923 240,268.73582436560707 254,268.73582436560707 261,280.86018001858923" />
    <polyline points="282,292.98453567157139 275,280.86018001858923 282,268.73582436560707 296,268.73582436560707 303,280.86018001858923" />
    <line x1="317" y1="280.86018001858923" x2="324" y2="292.98453567157139" />
    <polyline points="324,268.73582436560707 338,268.73582436560707 345,280.86018001858923" />
    <line x1="359" y1="280.86018001858923" x2="366" y2="292.98453567157139" />
    <line x1="366" y1="268.73582436560707" x2="380" y2="268.73582436560707" />
    <line x1="380" y1="292.98453567157139" x2="387" y2="280.86018001858923" />
    <polyline points="401,280.86018001858923 408,292.98453567157139 401,305.10889132455355" />
    <polyline points="9,329.35760263051787 2,317.23324697753571 9,305.10889132455355" />
    <polyline points="23,305.10889132455355 30,292.98453567157139 44,292.98453567157139 51,305.10889132455355 65,305.10889132455355 72,317.23324697753571" />
    <line x1="65" y1="305.10889132455355" x2="72" y2="292.98453567157139" />
    <polyline points="86,292.98453567157139 93,305.10889132455355 86,317.23324697753571" />
    <polyline points="114,317.23324697753571 107,305.10889132455355 114,292.98453567157139 128,292.98453567157139" />
    <polyline points="128,317.23324697753571 135,305.10889132455355 149,305.10889132455355 156,292.98453567157139 170,292.98453567157139" />
    <polyline points="177,305.10889132455355 191,305.10889132455355 198,292.98453567157139" />
    <polyline points="212,292.98453567157139 219,305.10889132455355 212,317.23324697753571" />
    <polyline points="240,317.23324697753571 233,305.10889132455355 240,292.98453567157139" />
    <polyline points="254,292.98453567157139 261,305.10889132455355 254,317.23324697753571" />
    <polyline points="261,305.10889132455355 275,305.10889132455355 282,317.23324697753571" />
    <line x1="275" y1="305.10889132455355" x2="282" y2="292.98453567157139" />
    <polyline points="296,292.98453567157139 303,305.10889132455355 296,317.23324697753571" />
    <polyline points="303,305.10889132455355 317,305.10889132455355 324,292.98453567157139 338,292.98453567157139 345,305.10889132455355 359,305.10889132455355 366,317.23324697753571" />
    <polyline points="359,305.10889132455355 366,292.98453567157139 380,292.98453567157139 387,305.10889132455355 380,317.23324697753571" />
    <polyline points="401,305.10889132455355 408,317.23324697753571 401,329.35760263051787" />
    <polyline points="9,353.60631393648208 2,341.48195828349992 9,329.35760263051776" />
    <polyline points="30,341.48195828349992 23,329.35760263051776 30,317.2332469775356 44,317.2332469775356 51,329.35760263051776 65,329.35760263051776 72,341.48195828349992" />
    <line x1="65" y1="329.35760263051776" x2="72" y2="317.2332469775356" />
    <polyline points="86,317.2332469775356 93,329.35760263051776 86,341.48195828349992" />
    <line x1="93" y1="329.35760263051776" x2="107" y2="329.35760263051776" />
    <polyline points="135,329.35760263051776 149,329.35760263051776 156,341.48195828349992" />
    <line x1="149" y1="329.35760263051776" x2="156" y2="317.2332469775356" />
    <polyline points="170,317.2332469775356 177,329.35760263051776 170,341.48195828349992" />
    <polyline points="177,329.35760263051776 191,329.35760263051776 198,341.48195828349992" />
    <polyline points="191,329.35760263051776 198,317.2332469775356 212,317.2332469775356" />
    <polyline points="212,341.48195828349992 219,329.35760263051776 233,329.35760263051776 240,341.48195828349992" />
    <polyline points="233,329.35760263051776 240,317.2332469775356 254,317.2332469775356 261,329.35760263051776 254,341.48195828349992" />
    <line x1="275" y1="329.35760263051776" x2="282" y2="341.48195828349992" />
    <polyline points="282,317.2332469775356 296,317.2332469775356 303,329.35760263051776 296,341.48195828349992" />
    <polyline points="303,329.35760263051776 317,329.35760263051776 324,341.48195828349992" />
    <line x1="317" y1="329.35760263051776" x2="324" y2="317.2332469775356" />
    <polyline points="338,317.2332469775356 345,329.35760263051776 338,341.48195828349992" />
    <line x1="359" y1="329.35760263051776" x2="366" y2="317.2332469775356" />
    <polyline points="380,317.2332469775356 387,329.35760263051776 380,341.48195828349992" />
    <polyline points="401,329.35760263051776 408,341.48195828349992 401,353.60631393648208" />
    <polyline points="9,353.60631393648208 23,353.60631393648208 30,365.73066958946424" />
    <line x1="30" y1="341.48195828349992" x2="44" y2="341.48195828349992" />
    <polyline points="44,365.73066958946424 51,353.60631393648208 65,353.60631393648208 72,365.73066958946424" />
    <polyline points="86,341.48195828349992 93,353.60631393648208 86,365.73066958946424" />
    <polyline points="107,353.60631393648208 114,341.48195828349992 128,341.48195828349992 135,353.60631393648208 128,365.73066958946424" />
    <line x1="135" y1="353.60631393648208" x2="149" y2="353.60631393648208" />
    <polyline points="156,341.48195828349992 170,341.48195828349992 177,353.60631393648208 170,365.73066958946424" />
    <line x1="177" y1="353.60631393648208" x2="191" y2="353.60631393648208" />
    <polyline points="198,341.48195828349992 212,341.48195828349992 219,353.60631393648208 212,365.73066958946424" />
    <line x1="219" y1="353.60631393648208" x2="233" y2="353.60631393648208" />
    <polyline points="254,365.73066958946424 261,353.60631393648208 275,353.60631393648208 282,365.73066958946424" />
    <line x1="275" y1="353.60631393648208" x2="282" y2="341.48195828349992" />
    <line x1="296" y1="365.73066958946424" x2="303" y2="353.60631393648208" />
    <line x1="317" y1="353.60631393648208" x2="324" y2="365.73066958946424" />
    <polyline points="324,341.48195828349992 338,341.48195828349992 345,353.60631393648208" />
    <line x1="359" y1="353.60631393648208" x2="366" y2="365.73066958946424" />
    <line x1="366" y1="341.48195828349992" x2="380" y2="341.48195828349992" />
    <polyline points="380,365.73066958946424 387,353.60631393648208 401,353.60631393648208" />
    <polyline points="30,365.73066958946424 44,365.73066958946424 51,377.8550252424464 65,377.8550252424464 72,389.97938089542856" />
    <polyline points="86,365.73066958946424 93,377.8550252424464 107,377.8550252424464 114,365.73066958946424" />
    <polyline points="128,365.73066958946424 135,377.8550252424464 128,389.97938089542856" />
    <polyline points="156,389.97938089542856 149,377.8550252424464 156,365.73066958946424" />
    <polyline points="170,365.73066958946424 177,377.8550252424464 170,389.97938089542856" />
    <polyline points="177,377.8550252424464 191,377.8550252424464 198,365.73066958946424" />
    <line x1="212" y1="365.73066958946424" x2="219" y2="377.8550252424464" />
    <polyline points="240,389.97938089542856 233,377.8550252424464 240,365.73066958946424 254,365.73066958946424" />
    <polyline points="261,377.8550252424464 275,377.8550252424464 282,389.97938089542856" />
    <line x1="282" y1="365.73066958946424" x2="296" y2="365.73066958946424" />
    <polyline points="296,389.97938089542856 303,377.8550252424464 317,377.8550252424464 324,365.73066958946424 338,365.73066958946424 345,377.8550252424464 338,389.97938089542856" />
    <polyline points="345,377.8550252424464 359,377.8550252424464 366,365.73066958946424 380,365.73066958946424" />
    <polyline points="72,389.97938089542845 86,389.97938089542845 93,402.10373654841061 107,402.10373654841061 114,414.22809220139277" />
    <polyline points="107,402.10373654841061 114,389.97938089542845 128,389.97938089542845" />
    <polyline points="128,414.22809220139277 135,402.10373654841061 149,402.10373654841061 156,414.22809220139277" />
    <line x1="149" y1="402.10373654841061" x2="156" y2="389.97938089542845" />
    <line x1="170" y1="389.97938089542845" x2="177" y2="402.10373654841061" />
    <polyline points="191,402.10373654841061 198,389.97938089542845 212,389.97938089542845 219,402.10373654841061 233,402.10373654841061 240,389.97938089542845 254,389.97938089542845 261,402.10373654841061 254,414.22809220139277" />
    <polyline points="275,402.10373654841061 282,389.97938089542845 296,389.97938089542845" />
    <polyline points="296,414.22809220139277 303,402.10373654841061 317,402.10373654841061 324,389.97938089542845 338,389.97938089542845" />
    <polyline points="114,414.22809220139277 128,414.22809220139277 135,426.35244785437493 149,426.35244785437493 156,438.47680350735709" />
    <polyline points="156,414.22809220139277 170,414.22809220139277 177,426.35244785437493" />
    <line x1="191" y1="426.35244785437493" x2="198" y2="438.47680350735709" />
    <polyline points="198,414.22809220139277 212,414.22809220139277 219,426.35244785437493 212,438.47680350735709" />
    <polyline points="219,426.35244785437493 233,426.35244785437493 240,414.22809220139277" />
    <polyline points="254,414.22809220139277 261,426.35244785437493 254,438.47680350735709" />
    <polyline points="261,426.35244785437493 275,426.35244785437493 282,414.22809220139277 296,414.22809220139277" />
    <polyline points="156,438.47680350735709 170,438.47680350735709 177,450.60115916033925 191,450.60115916033925 198,462.72551481332141" />
    <polyline points="191,450.60115916033925 198,438.47680350735709 212,438.47680350735709" />
    <polyline points="212,462.72551481332141 219,450.60115916033925 233,450.60115916033925 240,438.47680350735709 254,438.47680350735709" />
    <line x1="212" y1="462.72551481332141" x2="198" y2="462.72551481332141" />
  </g>
  <polyline fill="none" stroke="#ff0000" stroke-width="2" stroke-linecap="square" stroke-linejoin="round" points="205,2.0000000000000107 205,38.373066958946431 184,26.248711305964292 100,74.746133917892848 100,98.994845223857141 121,86.870489570875 121,111.11920087683927 142,123.24355652982142 100,147.4922678357857 121,159.61662348876786 100,171.74097914175 79,159.61662348876786 79,208.11404610069641 100,220.23840175367855 58,244.48711305964284 58,268.73582436560707 16,244.48711305964284 16,341.48195828349992 37,353.60631393648208 58,341.48195828349992 79,353.60631393648208 79,377.8550252424464 100,389.97938089542856 121,377.8550252424464 121,353.60631393648208 100,365.73066958946424 100,341.48195828349992 163,305.10889132455355 184,317.23324697753571 205,305.10889132455355 205,292.98453567157145" />
</svg>
