<?xml version="1.0" standalone="no"?>
<!DOCTYPE svg PUBLIC "-//W3C//DTD SVG 1.1//EN" "http://www.w3.org/Graphics/SVG/1.1/DTD/svg11.dtd">
<svg width="410" height="476.84987046630351" version="1.1" xmlns="http://www.w3.org/2000/svg">
  <title>Hexagonal sigma maze with 10 cells side</title>
  <desc>Hexagonal sigma maze with 10 cells side generated by The Maze Generator Website (https://www.mazegenerator.net/).</desc>
  <g fill="none" stroke="#000000" stroke-width="2" stroke-linecap="round" stroke-linejoin="round">
    <polyline points="170,26.248711305964292 177,14.124355652982152 191,14.124355652982152 198,2.0000000000000107" />
    <polyline points="212,2.0000000000000107 219,14.124355652982152 212,26.248711305964292" />
    <polyline points="219,14.124355652982152 233,14.124355652982152 240,26.248711305964292" />
    <polyline points="128,50.49742261192857 135,38.373066958946431 149,38.373066958946431 156,26.248711305964292 170,26.248711305964292" />
    <polyline points="170,50.49742261192857 177,38.373066958946431 191,38.373066958946431 198,50.49742261192857" />
    <line x1="191" y1="38.373066958946431" x2="198" y2="26.248711305964292" />
    <polyline points="212,26.248711305964292 219,38.373066958946431 233,38.373066958946431 240,50.49742261192857" />
    <polyline points="240,26.248711305964292 254,26.248711305964292 261,38.373066958946431 254,50.49742261192857" />
    <polyline points="261,38.373066958946431 275,38.373066958946431 282,50.49742261192857" />
    <polyline points="86,74.746133917892848 93,62.621778264910709 107,62.621778264910709 114,50.49742261192857 128,50.49742261192857" />
    <polyline points="128,74.746133917892848 135,62.621778264910709 149,62.621778264910709 156,50.49742261192857 170,50.49742261192857 177,62.621778264910709 170,74.746133917892848" />
    <polyline points="198,74.746133917892848 191,62.621778264910709 198,50.49742261192857" />
    <polyline points="212,50.49742261192857 219,62.621778264910709 233,62.621778264910709 240,50.49742261192857" />
    <polyline points="254,50.49742261192857 261,62.621778264910709 254,74.746133917892848" />
    <polyline points="261,62.621778264910709 275,62.621778264910709 282,74.746133917892848" />
    <polyline points="282,50.49742261192857 296,50.49742261192857 303,62.621778264910709 317,62.621778264910709 324,74.746133917892848" />
    <polyline points="44,98.994845223857141 51,86.870489570875 65,86.870489570875 72,98.994845223857141" />
    <polyline points="65,86.870489570875 72,74.746133917892848 86,74.746133917892848 93,86.870489570875 107,86.870489570875" />
    <polyline points="114,74.746133917892848 128,74.746133917892848 135,86.870489570875 128,98.994845223857141" />
    <polyline points="149,86.870489570875 156,74.746133917892848 170,74.746133917892848 177,86.870489570875 170,98.994845223857141" />
    <polyline points="177,86.870489570875 191,86.870489570875 198,98.994845223857141" />
    <polyline points="198,74.746133917892848 212,74.746133917892848 219,86.870489570875 212,98.994845223857141" />
    <line x1="233" y1="86.870489570875" x2="240" y2="98.994845223857141" />
    <polyline points="240,74.746133917892848 254,74.746133917892848 261,86.870489570875 275,86.870489570875 282,98.994845223857141" />
    <polyline points="282,74.746133917892848 296,74.746133917892848 303,86.870489570875 296,98.994845223857141" />
    <polyline points="324,98.994845223857141 317,86.870489570875 324,74.746133917892848 338,74.746133917892848 345,86.870489570875 338,98.994845223857141" />
    <polyline points="345,86.870489570875 359,86.870489570875 366,98.994845223857141" />
    <polyline points="9,135.36791218280357 2,123.24355652982142 9,111.11920087683927 23,111.11920087683927 30,98.994845223857126 44,98.994845223857126" />
    <line x1="44" y1="123.24355652982142" x2="51" y2="111.11920087683927" />
    <polyline points="65,111.11920087683927 72,98.994845223857126 86,98.994845223857126 93,111.11920087683927 86,123.24355652982142" />
    <polyline points="93,111.11920087683927 107,111.11920087683927 114,123.24355652982142" />
    <polyline points="107,111.11920087683927 114,98.994845223857126 128,98.994845223857126 135,111.11920087683927 128,123.24355652982142" />
    <line x1="149" y1="111.11920087683927" x2="156" y2="123.24355652982142" />
    <polyline points="156,98.994845223857126 170,98.994845223857126 177,111.11920087683927 191,111.11920087683927 198,123.24355652982142" />
    <polyline points="212,123.24355652982142 219,111.11920087683927 233,111.11920087683927 240,123.24355652982142" />
    <polyline points="233,111.11920087683927 240,98.994845223857126 254,98.994845223857126 261,111.11920087683927 254,123.24355652982142" />
    <line x1="275" y1="111.11920087683927" x2="282" y2="98.994845223857126" />
    <polyline points="296,98.994845223857126 303,111.11920087683927 296,123.24355652982142" />
    <polyline points="324,123.24355652982142 317,111.11920087683927 324,98.994845223857126" />
    <polyline points="338,123.24355652982142 345,111.11920087683927 359,111.11920087683927" />
    <polyline points="366,98.994845223857126 380,98.994845223857126 387,111.11920087683927 401,111.11920087683927 408,123.24355652982142 401,135.36791218280357" />
    <polyline points="9,159.61662348876783 2,147.4922678357857 9,135.36791218280357" />
    <polyline points="30,147.4922678357857 23,135.36791218280357 30,123.24355652982142" />
    <polyline points="44,123.24355652982142 51,135.36791218280357 44,147.4922678357857" />
    <polyline points="72,147.4922678357857 65,135.36791218280357 72,123.24355652982142" />
    <polyline points="86,123.24355652982142 93,135.36791218280357 86,147.4922678357857" />
    <polyline points="93,135.36791218280357 107,135.36791218280357 114,147.4922678357857" />
    <polyline points="135,135.36791218280357 149,135.36791218280357 156,123.24355652982142 170,123.24355652982142 177,135.36791218280357 170,147.4922678357857" />
    <line x1="191" y1="135.36791218280357" x2="198" y2="147.4922678357857" />
    <polyline points="212,123.24355652982142 219,135.36791218280357 212,147.4922678357857" />
    <line x1="233" y1="135.36791218280357" x2="240" y2="147.4922678357857" />
    <polyline points="254,123.24355652982142 261,135.36791218280357 275,135.36791218280357 282,147.4922678357857" />
    <polyline points="282,123.24355652982142 296,123.24355652982142 303,135.36791218280357 296,147.4922678357857" />
    <line x1="303" y1="135.36791218280357" x2="317" y2="135.36791218280357" />
    <polyline points="324,123.24355652982142 338,123.24355652982142 345,135.36791218280357 359,135.36791218280357 366,147.4922678357857" />
    <polyline points="366,123.24355652982142 380,123.24355652982142 387,135.36791218280357 401,135.36791218280357 408,147.4922678357857 401,159.61662348876783" />
    <polyline points="9,183.86533479473212 2,171.74097914175 9,159.61662348876786" />
    <polyline points="30,171.74097914175 23,159.61662348876786 30,147.49226783578573 44,147.49226783578573" />
    <line x1="44" y1="171.74097914175" x2="51" y2="159.61662348876786" />
    <polyline points="72,171.74097914175 65,159.61662348876786 72,147.49226783578573" />
    <polyline points="93,159.61662348876786 107,159.61662348876786 114,147.49226783578573" />
    <polyline points="128,147.49226783578573 135,159.61662348876786 128,171.74097914175" />
    <polyline points="135,159.61662348876786 149,159.61662348876786 156,171.74097914175" />
    <polyline points="156,147.49226783578573 170,147.49226783578573 177,159.61662348876786 170,171.74097914175" />
    <line x1="177" y1="159.61662348876786" x2="191" y2="159.61662348876786" />
    <polyline points="198,147.49226783578573 212,147.49226783578573 219,159.61662348876786 233,159.61662348876786 240,171.74097914175" />
    <polyline points="240,147.49226783578573 254,147.49226783578573 261,159.61662348876786 275,159.61662348876786 282,171.74097914175" />
    <polyline points="275,159.61662348876786 282,147.49226783578573 296,147.49226783578573" />
    <line x1="296" y1="171.74097914175" x2="303" y2="159.61662348876786" />
    <polyline points="317,159.61662348876786 324,147.49226783578573 338,147.49226783578573 345,159.61662348876786 338,171.74097914175" />
    <polyline points="345,159.61662348876786 359,159.61662348876786 366,171.74097914175" />
    <polyline points="359,159.61662348876786 366,147.49226783578573 380,147.49226783578573" />
    <polyline points="387,159.61662348876786 401,159.61662348876786 408,171.74097914175 401,183.86533479473212" />
    <polyline points="9,208.11404610069639 2,195.98969044771425 9,183.86533479473212" />
    <line x1="23" y1="183.86533479473212" x2="30" y2="195.98969044771425" />
    <polyline points="30,171.74097914175 44,171.74097914175 51,183.86533479473212 44,195.98969044771425" />
    <polyline points="72,195.98969044771425 65,183.86533479473212 72,171.74097914175" />
    <polyline points="86,171.74097914175 93,183.86533479473212 107,183.86533479473212 114,195.98969044771425" />
    <line x1="114" y1="171.74097914175" x2="128" y2="171.74097914175" />
    <line x1="128" y1="195.98969044771425" x2="135" y2="183.86533479473212" />
    <polyline points="156,195.98969044771425 149,183.86533479473212 156,171.74097914175" />
    <polyline points="170,171.74097914175 177,183.86533479473212 170,195.98969044771425" />
    <polyline points="177,183.86533479473212 191,183.86533479473212 198,171.74097914175 212,171.74097914175 219,183.86533479473212 233,183.86533479473212 240,195.98969044771425" />
    <polyline points="240,171.74097914175 254,171.74097914175 261,183.86533479473212" />
    <line x1="275" y1="183.86533479473212" x2="282" y2="195.98969044771425" />
    <polyline points="282,171.74097914175 296,171.74097914175 303,183.86533479473212 296,195.98969044771425" />
    <line x1="317" y1="183.86533479473212" x2="324" y2="195.98969044771425" />
    <line x1="324" y1="171.74097914175" x2="338" y2="171.74097914175" />
    <polyline points="345,183.86533479473212 359,183.86533479473212 366,195.98969044771425" />
    <polyline points="359,183.86533479473212 366,171.74097914175 380,171.74097914175" />
    <line x1="380" y1="195.98969044771425" x2="387" y2="183.86533479473212" />
    <polyline points="401,183.86533479473212 408,195.98969044771425 401,208.11404610069639" />
    <polyline points="9,232.36275740666068 2,220.23840175367855 9,208.11404610069641 23,208.11404610069641 30,220.23840175367855" />
    <polyline points="23,208.11404610069641 30,195.98969044771428 44,195.98969044771428" />
    <polyline points="44,220.23840175367855 51,208.11404610069641 65,208.11404610069641 72,220.23840175367855" />
    <polyline points="65,208.11404610069641 72,195.98969044771428 86,195.98969044771428 93,208.11404610069641" />
    <polyline points="114,220.23840175367855 107,208.11404610069641 114,195.98969044771428 128,195.98969044771428" />
    <line x1="128" y1="220.23840175367855" x2="135" y2="208.11404610069641" />
    <polyline points="156,220.23840175367855 149,208.11404610069641 156,195.98969044771428 170,195.98969044771428" />
    <polyline points="240,195.98969044771428 254,195.98969044771428 261,208.11404610069641 254,220.23840175367855" />
    <polyline points="261,208.11404610069641 275,208.11404610069641 282,195.98969044771428" />
    <polyline points="296,195.98969044771428 303,208.11404610069641 296,220.23840175367855" />
    <polyline points="317,208.11404610069641 324,195.98969044771428 338,195.98969044771428 345,208.11404610069641 359,208.11404610069641 366,195.98969044771428 380,195.98969044771428 387,208.11404610069641" />
    <polyline points="401,208.11404610069641 408,220.23840175367855 401,232.36275740666068" />
    <polyline points="9,256.61146871262497 2,244.48711305964284 9,232.36275740666071 23,232.36275740666071 30,244.48711305964284" />
    <line x1="30" y1="220.23840175367857" x2="44" y2="220.23840175367857" />
    <polyline points="44,244.48711305964284 51,232.36275740666071 65,232.36275740666071 72,244.48711305964284" />
    <line x1="72" y1="220.23840175367857" x2="86" y2="220.23840175367857" />
    <polyline points="86,244.48711305964284 93,232.36275740666071 107,232.36275740666071 114,220.23840175367857" />
    <polyline points="128,220.23840175367857 135,232.36275740666071 128,244.48711305964284" />
    <polyline points="156,244.48711305964284 149,232.36275740666071 156,220.23840175367857" />
    <polyline points="254,220.23840175367857 261,232.36275740666071 254,244.48711305964284" />
    <line x1="275" y1="232.36275740666071" x2="282" y2="244.48711305964284" />
    <polyline points="282,220.23840175367857 296,220.23840175367857 303,232.36275740666071 296,244.48711305964284" />
    <polyline points="303,232.36275740666071 317,232.36275740666071 324,244.48711305964284" />
    <polyline points="317,232.36275740666071 324,220.23840175367857 338,220.23840175367857 345,232.36275740666071 338,244.48711305964284" />
    <polyline points="345,232.36275740666071 359,232.36275740666071 366,244.48711305964284" />
    <polyline points="366,220.23840175367857 380,220.23840175367857 387,232.36275740666071 380,244.48711305964284" />
    <polyline points="387,232.36275740666071 401,232.36275740666071 408,244.48711305964284 401,256.61146871262497" />
    <polyline points="9,280.86018001858923 2,268.73582436560707 9,256.61146871262491 23,256.61146871262491 30,268.73582436560707" />
    <line x1="30" y1="244.48711305964278" x2="44" y2="244.48711305964278" />
    <line x1="44" y1="268.73582436560707" x2="51" y2="256.61146871262491" />
    <polyline points="72,268.73582436560707 65,256.61146871262491 72,244.48711305964278 86,244.48711305964278 93,256.61146871262491 107,256.61146871262491 114,268.73582436560707" />
    <line x1="107" y1="256.61146871262491" x2="114" y2="244.48711305964278" />
    <polyline points="128,244.48711305964278 135,256.61146871262491 128,268.73582436560707" />
    <polyline points="156,268.73582436560707 149,256.61146871262491 156,244.48711305964278" />
    <polyline points="254,244.48711305964278 261,256.61146871262491 254,268.73582436560707" />
    <polyline points="275,256.61146871262491 282,244.48711305964278 296,244.48711305964278" />
    <line x1="296" y1="268.73582436560707" x2="303" y2="256.61146871262491" />
    <polyline points="324,268.73582436560707 317,256.61146871262491 324,244.48711305964278" />
    <polyline points="338,268.73582436560707 345,256.61146871262491 359,256.61146871262491 366,268.73582436560707" />
    <polyline points="380,244.48711305964278 387,256.61146871262491 380,268.73582436560707" />
    <polyline points="401,256.61146871262491 408,268.73582436560707 401,280.86018001858923" />
    <polyline points="9,305.10889132455355 2,292.98453567157139 9,280.86018001858923" />
    <line x1="23" y1="280.86018001858923" x2="30" y2="268.73582436560707" />
    <polyline points="44,268.73582436560707 51,280.86018001858923 44,292.98453567157139" />
    <line x1="51" y1="280.86018001858923" x2="65" y2="280.86018001858923" />
    <polyline points="86,268.73582436560707 93,280.86018001858923 86,292.98453567157139" />
    <polyline points="114,292.98453567157139 107,280.86018001858923 114,268.73582436560707" />
    <polyline points="128,268.73582436560707 135,280.86018001858923 128,292.98453567157139" />
    <polyline points="149,280.86018001858923 156,268.73582436560707 170,268.73582436560707 177,280.86018001858923 191,280.86018001858923 198,292.98453567157139" />
    <polyline points="212,292.98453567157139 219,280.86018001858923 233,280.86018001858923 240,268.73582436560707 254,268.73582436560707 261,280.86018001858923" />
    <line x1="275" y1="280.86018001858923" x2="282" y2="292.98453567157139" />
    <polyline points="282,268.73582436560707 296,268.73582436560707 303,280.86018001858923 296,292.98453567157139" />
    <line x1="317" y1="280.86018001858923" x2="324" y2="292.98453567157139" />
    <polyline points="338,292.98453567157139 345,280.86018001858923 359,280.86018001858923 366,268.73582436560707 380,268.73582436560707 387,280.86018001858923" />
    <polyline points="401,280.86018001858923 408,292.98453567157139 401,305.10889132455355" />
    <polyline points="9,329.35760263051787 2,317.23324697753571 9,305.10889132455355 23,305.10889132455355" />
    <polyline points="30,292.98453567157139 44,292.98453567157139 51,305.10889132455355 44,317.23324697753571" />
    <polyline points="51,305.10889132455355 65,305.10889132455355 72,292.98453567157139 86,292.98453567157139" />
    <polyline points="86,317.23324697753571 93,305.10889132455355 107,305.10889132455355" />
    <polyline points="114,292.98453567157139 128,292.98453567157139 135,305.10889132455355 128,317.23324697753571" />
    <polyline points="156,317.23324697753571 149,305.10889132455355 156,292.98453567157139" />
    <polyline points="170,292.98453567157139 177,305.10889132455355 170,317.23324697753571" />
    <polyline points="177,305.10889132455355 191,305.10889132455355 198,317.23324697753571" />
    <line x1="191" y1="305.10889132455355" x2="198" y2="292.98453567157139" />
    <polyline points="212,292.98453567157139 219,305.10889132455355 233,305.10889132455355 240,317.23324697753571" />
    <polyline points="240,292.98453567157139 254,292.98453567157139 261,305.10889132455355 254,317.23324697753571" />
    <polyline points="261,305.10889132455355 275,305.10889132455355 282,292.98453567157139 296,292.98453567157139" />
    <polyline points="296,317.23324697753571 303,305.10889132455355 317,305.10889132455355 324,292.98453567157139 338,292.98453567157139" />
    <polyline points="338,317.23324697753571 345,305.10889132455355 359,305.10889132455355 366,317.23324697753571" />
    <line x1="359" y1="305.10889132455355" x2="366" y2="292.98453567157139" />
    <polyline points="380,292.98453567157139 387,305.10889132455355 380,317.23324697753571" />
    <polyline points="401,305.10889132455355 408,317.23324697753571 401,329.35760263051787" />
    <polyline points="9,353.60631393648208 2,341.48195828349992 9,329.35760263051776 23,329.35760263051776 30,341.48195828349992" />
    <polyline points="30,317.2332469775356 44,317.2332469775356 51,329.35760263051776 44,341.48195828349992" />
    <polyline points="72,341.48195828349992 65,329.35760263051776 72,317.2332469775356 86,317.2332469775356 93,329.35760263051776 86,341.48195828349992" />
    <polyline points="107,329.35760263051776 114,317.2332469775356 128,317.2332469775356" />
    <polyline points="128,341.48195828349992 135,329.35760263051776 149,329.35760263051776 156,317.2332469775356" />
    <polyline points="170,317.2332469775356 177,329.35760263051776 170,341.48195828349992" />
    <polyline points="191,329.35760263051776 198,317.2332469775356 212,317.2332469775356 219,329.35760263051776 212,341.48195828349992" />
    <polyline points="240,341.48195828349992 233,329.35760263051776 240,317.2332469775356" />
    <polyline points="254,317.2332469775356 261,329.35760263051776 275,329.35760263051776 282,341.48195828349992" />
    <polyline points="282,317.2332469775356 296,317.2332469775356 303,329.35760263051776 296,341.48195828349992" />
    <line x1="303" y1="329.35760263051776" x2="317" y2="329.35760263051776" />
    <polyline points="324,317.2332469775356 338,317.2332469775356 345,329.35760263051776 338,341.48195828349992" />
    <polyline points="366,341.48195828349992 359,329.35760263051776 366,317.2332469775356" />
    <polyline points="380,317.2332469775356 387,329.35760263051776 401,329.35760263051776 408,341.48195828349992 401,353.60631393648208" />
    <polyline points="9,353.60631393648208 23,353.60631393648208 30,365.73066958946424" />
    <line x1="30" y1="341.48195828349992" x2="44" y2="341.48195828349992" />
    <polyline points="44,365.73066958946424 51,353.60631393648208 65,353.60631393648208 72,365.73066958946424" />
    <line x1="65" y1="353.60631393648208" x2="72" y2="341.48195828349992" />
    <polyline points="86,341.48195828349992 93,353.60631393648208 107,353.60631393648208 114,365.73066958946424" />
    <polyline points="107,353.60631393648208 114,341.48195828349992 128,341.48195828349992 135,353.60631393648208 128,365.73066958946424" />
    <polyline points="135,353.60631393648208 149,353.60631393648208 156,341.48195828349992 170,341.48195828349992 177,353.60631393648208 191,353.60631393648208 198,365.73066958946424" />
    <line x1="191" y1="353.60631393648208" x2="198" y2="341.48195828349992" />
    <polyline points="212,365.73066958946424 219,353.60631393648208 233,353.60631393648208 240,341.48195828349992 254,341.48195828349992" />
    <polyline points="254,365.73066958946424 261,353.60631393648208 275,353.60631393648208 282,341.48195828349992 296,341.48195828349992 303,353.60631393648208 317,353.60631393648208 324,365.73066958946424" />
    <polyline points="324,341.48195828349992 338,341.48195828349992 345,353.60631393648208 338,365.73066958946424" />
    <polyline points="366,365.73066958946424 359,353.60631393648208 366,341.48195828349992 380,341.48195828349992" />
    <polyline points="380,365.73066958946424 387,353.60631393648208 401,353.60631393648208" />
    <polyline points="30,365.73066958946424 44,365.73066958946424 51,377.8550252424464 65,377.8550252424464 72,389.97938089542856" />
    <polyline points="72,365.73066958946424 86,365.73066958946424 93,377.8550252424464 107,377.8550252424464" />
    <line x1="128" y1="365.73066958946424" x2="135" y2="377.8550252424464" />
    <polyline points="156,389.97938089542856 149,377.8550252424464 156,365.73066958946424 170,365.73066958946424 177,377.8550252424464 191,377.8550252424464 198,389.97938089542856" />
    <polyline points="212,365.73066958946424 219,377.8550252424464 212,389.97938089542856" />
    <polyline points="240,389.97938089542856 233,377.8550252424464 240,365.73066958946424" />
    <polyline points="254,389.97938089542856 261,377.8550252424464 275,377.8550252424464 282,365.73066958946424 296,365.73066958946424" />
    <line x1="296" y1="389.97938089542856" x2="303" y2="377.8550252424464" />
    <line x1="317" y1="377.8550252424464" x2="324" y2="389.97938089542856" />
    <polyline points="338,389.97938089542856 345,377.8550252424464 359,377.8550252424464 366,365.73066958946424 380,365.73066958946424" />
    <polyline points="72,389.97938089542845 86,389.97938089542845 93,402.10373654841061 107,402.10373654841061 114,414.22809220139277" />
    <line x1="107" y1="402.10373654841061" x2="114" y2="389.97938089542845" />
    <polyline points="128,389.97938089542845 135,402.10373654841061 149,402.10373654841061 156,414.22809220139277" />
    <line x1="156" y1="389.97938089542845" x2="170" y2="389.97938089542845" />
    <polyline points="170,414.22809220139277 177,402.10373654841061 191,402.10373654841061" />
    <line x1="198" y1="389.97938089542845" x2="212" y2="389.97938089542845" />
    <polyline points="212,414.22809220139277 219,402.10373654841061 233,402.10373654841061 240,414.22809220139277" />
    <polyline points="233,402.10373654841061 240,389.97938089542845 254,389.97938089542845" />
    <polyline points="254,414.22809220139277 261,402.10373654841061 275,402.10373654841061 282,414.22809220139277" />
    <polyline points="282,389.97938089542845 296,389.97938089542845 303,402.10373654841061 296,414.22809220139277" />
    <polyline points="303,402.10373654841061 317,402.10373654841061 324,389.97938089542845 338,389.97938089542845" />
    <polyline points="114,414.22809220139277 128,414.22809220139277 135,426.35244785437493 149,426.35244785437493 156,438.47680350735709" />
    <polyline points="149,426.35244785437493 156,414.22809220139277 170,414.22809220139277" />
    <polyline points="170,438.47680350735709 177,426.35244785437493 191,426.35244785437493" />
    <line x1="198" y1="414.22809220139277" x2="212" y2="414.22809220139277" />
    <polyline points="212,438.47680350735709 219,426.35244785437493 233,426.35244785437493 240,438.47680350735709" />
    <line x1="240" y1="414.22809220139277" x2="254" y2="414.22809220139277" />
    <polyline points="254,438.47680350735709 261,426.35244785437493 275,426.35244785437493 282,414.22809220139277 296,414.22809220139277" />
    <polyline points="156,438.47680350735709 170,438.47680350735709 177,450.60115916033925 191,450.60115916033925 198,462.72551481332141" />
    <line x1="198" y1="438.47680350735709" x2="212" y2="438.47680350735709" />
    <polyline points="212,462.72551481332141 219,450.60115916033925 233,450.60115916033925 240,438.47680350735709 254,438.47680350735709" />
    <line x1="212" y1="462.72551481332141" x2="198" y2="462.72551481332141" />
  </g>
  <polyline fill="none" stroke="#ff0000" stroke-width="2" stroke-linecap="square" stroke-linejoin="round" points="205,2.0000000000000107 205,62.621778264910709 226,74.746133917892848 226,98.994845223857141 205,111.11920087683927 205,135.36791218280357 184,123.24355652982142 184,147.4922678357857 268,195.98969044771425 268,171.74097914175 289,183.86533479473212 289,208.11404610069641 268,220.23840175367855 268,292.98453567157139 247,280.86018001858923 226,292.98453567157139 247,305.10889132455355 247,329.35760263051776 268,341.48195828349992 226,365.73066958946424 226,389.97938089542856 205,402.10373654841061 184,389.97938089542856 163,402.10373654841061 142,389.97938089542856 142,365.73066958946424 163,353.60631393648208 205,377.8550252424464 205,353.60631393648208 226,341.48195828349992 226,317.23324697753571 205,305.10889132455355 205,292.98453567157145" />
</svg>
