<?xml version="1.0" standalone="no"?>
<!DOCTYPE svg PUBLIC "-//W3C//DTD SVG 1.1//EN" "http://www.w3.org/Graphics/SVG/1.1/DTD/svg11.dtd">
<svg width="244" height="244" version="1.1" xmlns="http://www.w3.org/2000/svg">
  <title>15 cells diameter theta maze</title>
  <desc>15 cells diameter theta maze generated by The Maze Generator Website (https://www.mazegenerator.net/).</desc>
  <g fill="none" stroke="#000000" stroke-width="2" stroke-linecap="square">
    <path d="M 107.69266270539642,159.95518130045147 A 40,40 0 1,1 123,163" />
    <path d="M 83.402020253553331,83.402020253553346 A 56,56 0 0,1 144.43027221244503,71.262746179367952" />
    <path d="M 174.73725382063205,101.56972778755497 A 56,56 0 0,1 174.73725382063208,144.43027221244503" />
    <path d="M 101.56972778755498,174.73725382063208 A 56,56 0 0,1 83.402020253553346,162.59797974644667" />
    <path d="M 67,123.00000000000001 A 56,56 0 0,1 71.262746179367952,101.56972778755497" />
    <path d="M 72.088311754568565,72.0883117545686 A 72,72 0 0,1 123,51" />
    <path d="M 137.04650318516124,52.383459810967409 A 72,72 0 0,1 173.91168824543144,72.088311754568579" />
    <path d="M 182.86581208578326,82.998943222588636 A 72,72 0 0,1 193.61654018903261,108.95349681483876" />
    <path d="M 193.61654018903261,137.04650318516124 A 72,72 0 0,1 52.383459810967409,108.95349681483876" />
    <path d="M 56.48067365918736,95.446792869713519 A 72,72 0 0,1 63.134187914216724,82.998943222588665" />
    <path d="M 123,35 A 88,88 0 0,1 156.6761420481279,41.698601139006769" />
    <path d="M 185.22539674441617,60.774603255583813 A 88,88 0 0,1 211,123" />
    <path d="M 196.16932588262398,171.89018050572497 A 88,88 0 0,1 185.22539674441617,185.22539674441617" />
    <path d="M 89.323857951872114,204.30139886099323 A 88,88 0 0,1 60.774603255583827,185.2253967444162" />
    <path d="M 49.83067411737602,171.890180505725 A 88,88 0 0,1 36.690895324515722,140.16794833741932" />
    <path d="M 35,123.00000000000001 A 88,88 0 0,1 36.690895324515722,105.83205166258071" />
    <path d="M 60.774603255583806,60.774603255583834 A 88,88 0 0,1 74.109819494275,49.83067411737602" />
    <path d="M 83.200923034030609,26.916528618826206 A 104,104 0 0,1 143.28939348967734,20.998330838064035" />
    <path d="M 219.08347138117381,83.200923034030666 A 104,104 0 0,1 225.00166916193598,143.28939348967734" />
    <path d="M 196.53910524340097,196.53910524340094 A 104,104 0 0,1 180.77930423403862,209.4728396794647" />
    <path d="M 143.28939348967737,225.00166916193598 A 104,104 0 0,1 65.220695765961409,209.47283967946473" />
    <path d="M 36.527160320535287,180.77930423403862 A 104,104 0 0,1 26.916528618826206,162.79907696596939" />
    <path d="M 20.998330838064035,143.28939348967737 A 104,104 0 0,1 19,123.00000000000001" />
    <path d="M 146.41083864193539,5.3057663516123483 A 120,120 0 1,1 123,3" />
  </g>
  <g fill="none" stroke="#000000" stroke-width="2" stroke-linecap="butt">
    <line x1="123" y1="3" x2="123" y2="19" />
    <line x1="168.92201188381077" y1="12.134456098645586" x2="156.6761420481279" y2="41.698601139006769" />
    <line x1="144.43027221244503" y1="71.262746179367952" x2="138.3073372946036" y2="86.044818699548529" />
    <line x1="189.66842796235227" y1="23.223646523694569" x2="171.890180505725" y2="49.83067411737602" />
    <line x1="196.53910524340094" y1="49.460894756599046" x2="162.59797974644664" y2="83.402020253553331" />
    <line x1="209.4728396794647" y1="65.220695765961352" x2="182.86581208578326" y2="82.998943222588636" />
    <line x1="233.86554390135441" y1="77.077988116189218" x2="219.08347138117381" y2="83.200923034030666" />
    <line x1="211" y1="123" x2="163" y2="123" />
    <line x1="209.30910467548426" y1="140.16794833741929" x2="193.61654018903261" y2="137.04650318516124" />
    <line x1="219.08347138117381" y1="162.79907696596933" x2="189.51932634081265" y2="150.55320713028647" />
    <line x1="209.47283967946473" y1="180.77930423403859" x2="182.86581208578326" y2="163.00105677741135" />
    <line x1="207.85281374238571" y1="207.85281374238571" x2="196.53910524340097" y2="196.53910524340094" />
    <line x1="173.91168824543144" y1="173.91168824543144" x2="162.59797974644667" y2="162.59797974644664" />
    <line x1="180.77930423403862" y1="209.4728396794647" x2="171.890180505725" y2="196.16932588262398" />
    <line x1="168.9220118838108" y1="233.86554390135441" x2="156.6761420481279" y2="204.30139886099323" />
    <line x1="144.43027221244503" y1="174.73725382063205" x2="138.3073372946036" y2="159.95518130045147" />
    <line x1="143.28939348967737" y1="225.00166916193598" x2="140.16794833741932" y2="209.30910467548426" />
    <line x1="123.00000000000001" y1="227" x2="123.00000000000001" y2="211" />
    <line x1="123.00000000000001" y1="195" x2="123" y2="163" />
    <line x1="99.5891613580646" y1="240.69423364838764" x2="105.83205166258071" y2="209.30910467548426" />
    <line x1="101.56972778755498" y1="174.73725382063208" x2="107.69266270539642" y2="159.95518130045147" />
    <line x1="38.147186257614308" y1="207.85281374238571" x2="60.774603255583827" y2="185.2253967444162" />
    <line x1="36.5271603205353" y1="180.77930423403862" x2="49.83067411737602" y2="171.890180505725" />
    <line x1="56.480673659187374" y1="150.5532071302865" x2="71.262746179367952" y2="144.43027221244506" />
    <line x1="5.3057663516123625" y1="146.41083864193544" x2="36.690895324515736" y2="140.16794833741932" />
    <line x1="19" y1="123.00000000000001" x2="35" y2="123.00000000000001" />
    <line x1="67" y1="123.00000000000001" x2="83" y2="123.00000000000001" />
    <line x1="5.3057663516123483" y1="99.5891613580646" x2="20.998330838064035" y2="102.71060651032266" />
    <line x1="36.690895324515722" y1="105.83205166258071" x2="52.383459810967409" y2="108.95349681483876" />
    <line x1="12.1344560986456" y1="77.0779881161892" x2="41.698601139006783" y2="89.323857951872071" />
    <line x1="56.48067365918736" y1="95.446792869713519" x2="71.262746179367952" y2="101.56972778755497" />
    <line x1="36.527160320535273" y1="65.220695765961409" x2="63.134187914216724" y2="82.998943222588665" />
    <line x1="49.460894756599046" y1="49.460894756599075" x2="60.774603255583806" y2="60.774603255583834" />
    <line x1="72.088311754568565" y1="72.0883117545686" x2="83.402020253553331" y2="83.402020253553346" />
    <line x1="56.331572037647732" y1="23.223646523694569" x2="74.109819494275" y2="49.83067411737602" />
    <line x1="89.323857951872043" y1="41.698601139006783" x2="95.446792869713491" y2="56.480673659187374" />
    <line x1="105.83205166258067" y1="36.690895324515736" x2="108.95349681483873" y2="52.383459810967423" />
  </g>
  <path fill="none" stroke="#ff0000" stroke-width="2" stroke-linecap="square" stroke-linejoin="round" d="M 134.76205683954728,3.5778327993363774 L 133.97791971691078,11.539310612713948 A 112,112 0 0,1 155.51188385249978,15.822682397992608 L 150.86732901642839,31.133727769707946 A 96,96 0 0,0 77.7459132647042,38.335558622557926 L 85.288261053920166,52.446298852131605 A 80,80 0 0,0 61.159163730981049,72.248537266908357 L 36.422829223373469,51.947952173671695 A 112,112 0 0,0 24.224818392984233,70.203565475488276 L 52.446298852131591,85.2882610539202 A 80,80 0 0,0 46.444773141423283,99.777225819643036 L 61.755818513138628,104.42178065571443 A 64,64 0 0,0 60.22974205419326,135.48578060903225 L 75.922306540644939,132.36433545677417 A 48,48 0 0,0 83.08945860947783,149.66737118494092 L 69.7859448126371,158.55649491325454 A 64,64 0 0,0 110.51421939096778,185.77025794580675 L 115.19638711935487,162.23141121612923" />
</svg>
