<?xml version="1.0" standalone="no"?>
<!DOCTYPE svg PUBLIC "-//W3C//DTD SVG 1.1//EN" "http://www.w3.org/Graphics/SVG/1.1/DTD/svg11.dtd">
<svg width="244" height="244" version="1.1" xmlns="http://www.w3.org/2000/svg">
  <title>15 cells diameter theta maze</title>
  <desc>15 cells diameter theta maze generated by The Maze Generator Website (https://www.mazegenerator.net/).</desc>
  <g fill="none" stroke="#000000" stroke-width="2" stroke-linecap="square">
    <path d="M 107.69266270539642,159.95518130045147 A 40,40 0 1,1 123,163" />
    <path d="M 71.262746179367952,101.56972778755497 A 56,56 0 0,1 123,67" />
    <path d="M 144.43027221244503,71.262746179367952 A 56,56 0 0,1 174.73725382063208,144.43027221244503" />
    <path d="M 144.43027221244503,174.73725382063205 A 56,56 0 0,1 101.56972778755498,174.73725382063208" />
    <path d="M 83.402020253553346,162.59797974644667 A 56,56 0 0,1 71.262746179367952,144.43027221244506" />
    <path d="M 108.95349681483873,52.383459810967409 A 72,72 0 0,1 193.61654018903261,137.04650318516124" />
    <path d="M 189.51932634081265,150.55320713028647 A 72,72 0 0,1 137.04650318516127,193.61654018903261" />
    <path d="M 108.95349681483876,193.61654018903261 A 72,72 0 0,1 95.446792869713548,189.51932634081265" />
    <path d="M 82.998943222588665,182.86581208578326 A 72,72 0 0,1 56.480673659187374,150.5532071302865" />
    <path d="M 52.383459810967409,137.04650318516127 A 72,72 0 0,1 82.99894322258865,63.134187914216746" />
    <path d="M 123,35 A 88,88 0 0,1 156.6761420481279,41.698601139006769" />
    <path d="M 196.16932588262398,74.109819494275 A 88,88 0 0,1 211,123" />
    <path d="M 209.30910467548426,140.16794833741929 A 88,88 0 0,1 204.30139886099323,156.6761420481279" />
    <path d="M 140.16794833741932,209.30910467548426 A 88,88 0 0,1 123.00000000000001,211" />
    <path d="M 89.323857951872114,204.30139886099323 A 88,88 0 0,1 74.10981949427503,196.16932588262398" />
    <path d="M 60.774603255583827,185.2253967444162 A 88,88 0 0,1 36.690895324515722,105.83205166258071" />
    <path d="M 49.830674117375992,74.10981949427503 A 88,88 0 0,1 74.109819494275,49.83067411737602" />
    <path d="M 89.323857951872043,41.698601139006783 A 88,88 0 0,1 105.83205166258067,36.690895324515722" />
    <path d="M 102.71060651032261,20.998330838064049 A 104,104 0 0,1 143.28939348967734,20.998330838064035" />
    <path d="M 162.79907696596933,26.916528618826177 A 104,104 0 0,1 180.77930423403862,36.527160320535287" />
    <path d="M 196.53910524340094,49.46089475659906 A 104,104 0 0,1 219.08347138117381,83.200923034030666" />
    <path d="M 225.00166916193598,102.71060651032266 A 104,104 0 0,1 227,123" />
    <path d="M 219.08347138117381,162.79907696596933 A 104,104 0 0,1 196.53910524340097,196.53910524340094" />
    <path d="M 162.79907696596933,219.08347138117381 A 104,104 0 0,1 123.00000000000001,227" />
    <path d="M 65.220695765961409,209.47283967946473 A 104,104 0 0,1 36.527160320535287,180.77930423403862" />
    <path d="M 20.998330838064035,143.28939348967737 A 104,104 0 0,1 20.998330838064035,102.71060651032266" />
    <path d="M 26.916528618826192,83.200923034030637 A 104,104 0 0,1 36.527160320535273,65.220695765961409" />
    <path d="M 49.460894756599046,49.460894756599075 A 104,104 0 0,1 83.200923034030609,26.916528618826206" />
    <path d="M 146.41083864193539,5.3057663516123483 A 120,120 0 1,1 123,3" />
  </g>
  <g fill="none" stroke="#000000" stroke-width="2" stroke-linecap="butt">
    <line x1="143.28939348967734" y1="20.998330838064035" x2="140.16794833741929" y2="36.690895324515722" />
    <line x1="180.77930423403862" y1="36.5271603205353" x2="163.00105677741135" y2="63.134187914216746" />
    <line x1="196.53910524340094" y1="49.460894756599046" x2="185.22539674441617" y2="60.774603255583813" />
    <line x1="196.16932588262398" y1="74.109819494275" x2="182.86581208578326" y2="82.998943222588636" />
    <line x1="219.08347138117381" y1="83.200923034030666" x2="204.30139886099323" y2="89.3238579518721" />
    <line x1="174.73725382063205" y1="101.56972778755497" x2="159.95518130045147" y2="107.6926627053964" />
    <line x1="227" y1="123" x2="211" y2="123" />
    <line x1="225.00166916193598" y1="143.28939348967734" x2="193.61654018903261" y2="137.04650318516124" />
    <line x1="204.30139886099323" y1="156.6761420481279" x2="189.51932634081265" y2="150.55320713028647" />
    <line x1="209.47283967946473" y1="180.77930423403859" x2="196.16932588262398" y2="171.89018050572497" />
    <line x1="207.85281374238571" y1="207.85281374238571" x2="185.22539674441617" y2="185.22539674441617" />
    <line x1="162.59797974644667" y1="162.59797974644664" x2="151.2842712474619" y2="151.2842712474619" />
    <line x1="180.77930423403862" y1="209.4728396794647" x2="163.00105677741135" y2="182.86581208578326" />
    <line x1="168.9220118838108" y1="233.86554390135441" x2="144.43027221244503" y2="174.73725382063205" />
    <line x1="140.16794833741932" y1="209.30910467548426" x2="137.04650318516127" y2="193.61654018903261" />
    <line x1="123.00000000000001" y1="195" x2="123" y2="163" />
    <line x1="99.5891613580646" y1="240.69423364838764" x2="102.71060651032265" y2="225.00166916193598" />
    <line x1="105.83205166258071" y1="209.30910467548426" x2="108.95349681483876" y2="193.61654018903261" />
    <line x1="77.077988116189232" y1="233.86554390135444" x2="83.200923034030666" y2="219.08347138117384" />
    <line x1="95.446792869713548" y1="189.51932634081265" x2="101.56972778755498" y2="174.73725382063208" />
    <line x1="56.33157203764776" y1="222.77635347630547" x2="65.2206957659614" y2="209.47283967946473" />
    <line x1="74.10981949427503" y1="196.16932588262398" x2="82.99894322258865" y2="182.86581208578326" />
    <line x1="49.46089475659906" y1="196.53910524340097" x2="60.774603255583827" y2="185.2253967444162" />
    <line x1="83.402020253553346" y1="162.59797974644667" x2="94.7157287525381" y2="151.2842712474619" />
    <line x1="12.134456098645615" y1="168.92201188381085" x2="26.916528618826206" y2="162.79907696596939" />
    <line x1="56.480673659187374" y1="150.5532071302865" x2="71.262746179367952" y2="144.43027221244506" />
    <line x1="67" y1="123.00000000000001" x2="83" y2="123.00000000000001" />
    <line x1="20.998330838064035" y1="102.71060651032266" x2="36.690895324515722" y2="105.83205166258071" />
    <line x1="26.916528618826192" y1="83.200923034030637" x2="41.698601139006783" y2="89.323857951872071" />
    <line x1="23.223646523694541" y1="56.331572037647774" x2="36.527160320535273" y2="65.220695765961409" />
    <line x1="49.830674117376006" y1="74.10981949427503" x2="63.134187914216724" y2="82.998943222588665" />
    <line x1="38.14718625761428" y1="38.147186257614322" x2="49.460894756599046" y2="49.460894756599075" />
    <line x1="65.220695765961381" y1="36.5271603205353" x2="74.109819494275" y2="49.83067411737602" />
    <line x1="89.323857951872043" y1="41.698601139006783" x2="95.446792869713491" y2="56.480673659187374" />
    <line x1="101.56972778755494" y1="71.262746179367952" x2="107.69266270539639" y2="86.044818699548543" />
    <line x1="102.71060651032261" y1="20.998330838064049" x2="108.95349681483873" y2="52.383459810967423" />
  </g>
  <path fill="none" stroke="#ff0000" stroke-width="2" stroke-linecap="square" stroke-linejoin="round" d="M 134.76205683954728,3.5778327993363774 L 133.97791971691078,11.539310612713948 A 112,112 0 0,0 90.4881161475002,15.822682397992608 L 95.1326709835716,31.133727769707946 A 96,96 0 0,0 77.7459132647042,38.335558622557926 L 92.830608843136133,66.557039081705284 A 64,64 0 0,0 61.755818513138635,141.5782193442856 L 46.4447731414233,146.222774180357 A 80,80 0 0,0 72.248537266908386,184.84083626901898 L 62.098244720290054,197.20900352282277 A 96,96 0 0,0 95.132670983571643,214.86627223029205 L 99.777225819643036,199.5552268585767 A 80,80 0 0,1 85.2882610539202,193.55370114786842 L 92.830608843136147,179.44296091829472 A 64,64 0 0,1 87.443505086745475,176.2140551873629 L 96.33262881505911,162.91054139052218 A 48,48 0 0,0 113.63566454322584,170.07769345935506 L 115.19638711935487,162.23141121612923" />
</svg>
